PathFileType	4	(X/Y/Z)	 marche_02.trc
DataRate	CameraRate	NumFrames	NumMarkers	Units	OrigDataRate	OrigDataStartFrame	OrigNumFrames
200	200	8	44	m	200	199	396
Frame#	Time	RCAL			RMT1			RIMAL			REMAL			RMT5			LCAL			LMT1			LIMAL			LEMAL			LMT5			RTTA			LTTA			RICE			RECE			RGT			RAT			LICE			LECE			LGT			LASIS			RASIS			RPSIS			LPSIS			OMP			L4			XYP			C7			STE			FRO			RTEMP			LTEMP			RACR			RLEC			RMEC			LACR			LLEC			LMEC			RLS			RRS			LLS			LRS			RFIN			LFIN			C_43			
		X1	Y1	Z1	X2	Y2	Z2	X3	Y3	Z3	X4	Y4	Z4	X5	Y5	Z5	X6	Y6	Z6	X7	Y7	Z7	X8	Y8	Z8	X9	Y9	Z9	X10	Y10	Z10	X11	Y11	Z11	X12	Y12	Z12	X13	Y13	Z13	X14	Y14	Z14	X15	Y15	Z15	X16	Y16	Z16	X17	Y17	Z17	X18	Y18	Z18	X19	Y19	Z19	X20	Y20	Z20	X21	Y21	Z21	X22	Y22	Z22	X23	Y23	Z23	X24	Y24	Z24	X25	Y25	Z25	X26	Y26	Z26	X27	Y27	Z27	X28	Y28	Z28	X29	Y29	Z29	X30	Y30	Z30	X31	Y31	Z31	X32	Y32	Z32	X33	Y33	Z33	X34	Y34	Z34	X35	Y35	Z35	X36	Y36	Z36	X37	Y37	Z37	X38	Y38	Z38	X39	Y39	Z39	X40	Y40	Z40	X41	Y41	Z41	X42	Y42	Z42	X43	Y43	Z43	X44	Y44	Z44	
199	0.9950	0.400190	0.258681	0.399335	0.495871	0.077032	0.443809	0.489658	0.215890	0.388831	0.433882	0.236657	0.477553	0.460343	0.115957	0.507381	0.639432	0.047903	0.314986	0.852073	0.049155	0.324724	0.714337	0.096451	0.357178	0.700383	0.071013	0.256572	0.817897	0.036576	0.249474	0.740177	0.363911	0.488591	0.807149	0.371308	0.282837	0.787056	0.454284	0.400046	0.755922	0.471388	0.536876	0.651992	0.823515	0.530533	0.833685	0.674984	0.512779	0.738773	0.454998	0.350202	0.765896	0.450224	0.211367	0.710474	0.848687	0.163404	0.781177	0.944032	0.231064	0.755331	0.932511	0.481613	0.563106	0.939005	0.371945	0.574584	0.940371	0.288035	0.834832	0.994376	0.371209	0.559960	1.196499	0.330393	0.797463	1.185992	0.359827	0.594094	1.383045	0.329382	0.766411	1.352827	0.350274	0.854211	1.594697	0.341201	0.799079	1.575276	0.418281	0.799813	1.557763	0.254762	0.666024	1.398356	0.519966	0.600921	1.086727	0.626162	0.599526	1.056058	0.532303	0.712045	1.378413	0.162872	0.664115	1.059810	0.057309	0.621546	1.044628	0.148942	0.712154	0.847355	0.654976	0.789154	0.869763	0.602891	0.729248	0.806401	0.053295	0.749871	0.806124	0.133306	0.795583	0.782753	0.673882	0.758046	0.723751	0.087926	0.000000	0.000000	0.000000	
200	1.0000	0.413785	0.254959	0.398624	0.514090	0.076086	0.443601	0.504301	0.213667	0.388202	0.448438	0.233281	0.476564	0.478189	0.113996	0.506586	0.639505	0.048005	0.314950	0.852208	0.049144	0.324466	0.714850	0.096664	0.357153	0.700420	0.070936	0.256395	0.817436	0.036140	0.249163	0.754256	0.365301	0.488463	0.808211	0.370981	0.282849	0.798894	0.456269	0.399388	0.765646	0.473674	0.537523	0.660258	0.824089	0.531018	0.842734	0.677015	0.511845	0.739134	0.455126	0.349836	0.767019	0.449921	0.210705	0.714486	0.848439	0.163276	0.786815	0.944651	0.230124	0.761538	0.933025	0.480703	0.569304	0.939136	0.372483	0.580397	0.941008	0.288269	0.840980	0.995065	0.370558	0.565971	1.197116	0.329908	0.803679	1.186671	0.359470	0.600366	1.383485	0.328945	0.772697	1.353346	0.350160	0.860612	1.594923	0.341187	0.805451	1.575519	0.418202	0.806393	1.558150	0.254938	0.671856	1.398657	0.519634	0.605451	1.087160	0.625058	0.603486	1.056635	0.531287	0.718545	1.379183	0.162716	0.675117	1.060227	0.056274	0.632011	1.044053	0.147731	0.713140	0.846190	0.653714	0.790602	0.867621	0.601961	0.743870	0.807593	0.052734	0.762791	0.807086	0.132449	0.795228	0.779861	0.672543	0.774493	0.725822	0.086865	0.000000	0.000000	0.000000	
201	1.0050	0.427128	0.250930	0.397783	0.533761	0.075150	0.443768	0.519453	0.211077	0.387580	0.462978	0.229687	0.475717	0.496962	0.111810	0.505401	0.639606	0.048091	0.314919	0.852255	0.049151	0.324303	0.715223	0.096801	0.357130	0.700518	0.070952	0.256340	0.816812	0.035556	0.249136	0.768587	0.367035	0.488565	0.809200	0.370705	0.283060	0.810731	0.457512	0.399552	0.776191	0.475408	0.537936	0.668391	0.824971	0.531902	0.851698	0.679004	0.510877	0.739413	0.455818	0.349424	0.768192	0.449637	0.210130	0.719183	0.848987	0.162714	0.792541	0.944851	0.229462	0.767868	0.933542	0.479630	0.575532	0.939312	0.373009	0.586156	0.941476	0.288702	0.846913	0.995472	0.370115	0.572250	1.197530	0.329359	0.810043	1.187134	0.359099	0.606501	1.383891	0.328363	0.778769	1.353695	0.350123	0.866927	1.595022	0.341271	0.811900	1.575696	0.418410	0.813070	1.558362	0.254867	0.677766	1.398965	0.519286	0.609921	1.087657	0.624265	0.606997	1.057303	0.530248	0.724980	1.379856	0.162804	0.685830	1.060701	0.055560	0.642452	1.043849	0.146784	0.714200	0.845323	0.652666	0.791758	0.865232	0.600877	0.758462	0.808950	0.051885	0.776331	0.808647	0.131236	0.794999	0.777395	0.671169	0.791379	0.728568	0.085916	0.000000	0.000000	0.000000	
202	1.0100	0.440822	0.246467	0.396780	0.553626	0.073604	0.444396	0.534569	0.208582	0.387006	0.478155	0.225813	0.475967	0.514958	0.109901	0.504612	0.639718	0.048249	0.314953	0.852264	0.049130	0.324159	0.715277	0.096845	0.357049	0.700572	0.071031	0.256249	0.817083	0.035939	0.249079	0.782311	0.368546	0.488222	0.810164	0.370370	0.283169	0.822234	0.458881	0.399317	0.788185	0.476507	0.537689	0.676476	0.825739	0.532576	0.860373	0.681194	0.509893	0.740595	0.456268	0.349329	0.769391	0.449325	0.209532	0.724001	0.849447	0.161745	0.797621	0.945068	0.228790	0.774561	0.934173	0.478798	0.581703	0.939496	0.373259	0.591988	0.941974	0.289051	0.852782	0.995807	0.369449	0.578757	1.197504	0.328863	0.816167	1.187469	0.358826	0.612490	1.384267	0.328011	0.784774	1.353933	0.349955	0.873333	1.595225	0.341227	0.818562	1.576370	0.418812	0.819431	1.558641	0.254819	0.683859	1.399204	0.519072	0.614249	1.088035	0.623235	0.610694	1.057954	0.529178	0.731334	1.380505	0.162802	0.696543	1.061257	0.054710	0.652947	1.043584	0.145595	0.714827	0.844620	0.651948	0.792502	0.862910	0.599484	0.773232	0.810725	0.051326	0.792259	0.811483	0.130118	0.794736	0.774846	0.669676	0.808131	0.731334	0.084848	0.000000	0.000000	0.000000	
203	1.0150	0.454832	0.241754	0.395763	0.572271	0.071640	0.444206	0.549641	0.206284	0.386102	0.493597	0.221712	0.475773	0.530918	0.108001	0.504011	0.639726	0.048403	0.314939	0.852313	0.049077	0.324108	0.714696	0.096837	0.356435	0.700614	0.071034	0.256224	0.817607	0.036380	0.248944	0.795224	0.369841	0.487829	0.811207	0.369989	0.283150	0.833590	0.460540	0.399000	0.800751	0.477266	0.537035	0.684257	0.826499	0.533146	0.869178	0.683248	0.508742	0.741937	0.456997	0.348926	0.770680	0.448911	0.208777	0.728607	0.849885	0.161160	0.803035	0.945113	0.227812	0.781244	0.934831	0.478071	0.587670	0.939602	0.373475	0.597659	0.942257	0.289196	0.858750	0.996238	0.368527	0.585176	1.197673	0.328345	0.822185	1.187798	0.358635	0.618613	1.384574	0.327719	0.790976	1.354224	0.349974	0.879759	1.595374	0.341260	0.825126	1.576623	0.419084	0.825680	1.558915	0.254773	0.689964	1.399561	0.518933	0.618782	1.088435	0.622025	0.614481	1.058581	0.528167	0.737569	1.381279	0.162748	0.707337	1.061836	0.054013	0.663431	1.043132	0.144737	0.715470	0.843830	0.651123	0.792959	0.860680	0.597374	0.788139	0.812756	0.050762	0.807807	0.813842	0.129123	0.794388	0.772667	0.668079	0.824550	0.733851	0.083682	0.000000	0.000000	0.000000	
204	1.0200	0.468981	0.236514	0.394721	0.590029	0.069784	0.443378	0.564610	0.203674	0.385154	0.508467	0.217549	0.474541	0.548563	0.105426	0.503370	0.639737	0.048504	0.314916	0.852353	0.049110	0.324067	0.714421	0.096918	0.356126	0.700635	0.071036	0.256245	0.817911	0.036492	0.248810	0.807481	0.371432	0.487262	0.812697	0.369645	0.282809	0.844783	0.462242	0.398522	0.813138	0.478033	0.536229	0.691832	0.827110	0.533406	0.877930	0.685255	0.507646	0.743420	0.458086	0.348299	0.772163	0.448665	0.208091	0.733615	0.850107	0.160919	0.808213	0.945328	0.226563	0.788199	0.935351	0.477426	0.593751	0.939708	0.373822	0.603216	0.942619	0.289361	0.864702	0.996620	0.367520	0.591178	1.198654	0.327618	0.828365	1.187937	0.358595	0.624995	1.384792	0.327596	0.796922	1.354334	0.350021	0.886166	1.595280	0.341378	0.831602	1.576655	0.418999	0.832074	1.559121	0.254721	0.695984	1.399747	0.518795	0.623234	1.088619	0.621122	0.618272	1.059170	0.527417	0.743950	1.381809	0.162663	0.717897	1.062160	0.053232	0.673911	1.042755	0.143722	0.716647	0.842809	0.650091	0.794688	0.858771	0.595715	0.803265	0.814974	0.050479	0.822529	0.816309	0.128232	0.794530	0.770728	0.666389	0.840899	0.736476	0.083027	0.000000	0.000000	0.000000	
205	1.0250	0.483669	0.230697	0.394065	0.607991	0.068027	0.442350	0.580064	0.200871	0.384228	0.522716	0.213434	0.472707	0.567379	0.102762	0.503201	0.639726	0.048568	0.314957	0.852350	0.049096	0.324052	0.714972	0.097246	0.356310	0.700615	0.071053	0.256227	0.817920	0.036462	0.248733	0.819862	0.372501	0.486706	0.814680	0.369523	0.282224	0.856545	0.464263	0.397913	0.824958	0.479323	0.535068	0.699554	0.827766	0.533606	0.886685	0.687222	0.506346	0.745096	0.458732	0.347756	0.773702	0.448542	0.207505	0.738516	0.850385	0.160686	0.813747	0.945476	0.225682	0.795408	0.935992	0.476507	0.599777	0.939812	0.374247	0.608764	0.943157	0.289593	0.870713	0.997084	0.366654	0.596952	1.199708	0.326972	0.834352	1.187945	0.358414	0.631486	1.384885	0.327338	0.803025	1.354500	0.349767	0.892679	1.595367	0.341462	0.837705	1.576641	0.418867	0.838707	1.559370	0.254696	0.701891	1.399816	0.518524	0.627596	1.088727	0.620226	0.622076	1.059724	0.526449	0.750169	1.382248	0.162517	0.728344	1.062693	0.052478	0.684333	1.042629	0.142853	0.717829	0.841755	0.648952	0.797271	0.857356	0.594549	0.818232	0.817101	0.050070	0.837581	0.819022	0.127620	0.794995	0.768635	0.664646	0.857981	0.739390	0.082597	0.000000	0.000000	0.000000	
206	1.0300	0.498435	0.224558	0.393446	0.628339	0.067047	0.440768	0.595959	0.197188	0.383608	0.537657	0.209230	0.471466	0.587426	0.099689	0.503161	0.639839	0.048799	0.315039	0.852428	0.049111	0.323892	0.716036	0.097783	0.356820	0.700637	0.071101	0.256205	0.817780	0.036348	0.248618	0.833325	0.373411	0.485772	0.816408	0.369462	0.281380	0.866079	0.466609	0.397238	0.835080	0.481453	0.533910	0.707179	0.828300	0.533790	0.895239	0.689169	0.505496	0.747417	0.458553	0.347332	0.775270	0.448318	0.206976	0.743447	0.850302	0.160436	0.819034	0.945563	0.224921	0.802094	0.936430	0.475736	0.605621	0.939851	0.374833	0.614331	0.943528	0.289995	0.876791	0.997704	0.365664	0.602684	1.200224	0.326500	0.840123	1.187965	0.358084	0.637600	1.384984	0.326982	0.809541	1.354766	0.349397	0.899338	1.595450	0.341543	0.843894	1.576501	0.418894	0.845297	1.559431	0.254826	0.708085	1.399736	0.518459	0.632103	1.088890	0.619375	0.625930	1.060217	0.525470	0.756394	1.382828	0.162405	0.738610	1.063323	0.051608	0.695026	1.042361	0.142017	0.718874	0.840807	0.647821	0.799664	0.855861	0.593725	0.832886	0.819284	0.049633	0.852797	0.821890	0.127377	0.795356	0.766399	0.663102	0.875268	0.742402	0.081939	0.000000	0.000000	0.000000	
